<?xml version="1.0" encoding="UTF-8" standalone="no"?>
<!DOCTYPE svg PUBLIC "-//W3C//DTD SVG 1.1//EN" "http://www.w3.org/Graphics/SVG/1.1/DTD/svg11.dtd">
<!-- Generated by graphviz version 2.40.1 (20161225.0304)
 -->
<!-- Title: mrdag Pages: 1 -->
<svg width="269pt" height="177pt" viewBox="0.00 0.00 268.70 176.80" xmlns="http://www.w3.org/2000/svg" xmlns:xlink="http://www.w3.org/1999/xlink">
<g id="graph0" class="graph" transform="scale(1 1) rotate(0) translate(4 172.8)">
<title>mrdag</title>
<polygon fill="#ffffff" stroke="transparent" points="-4,4 -4,-172.8 264.7027,-172.8 264.7027,4 -4,4"/>
<!-- CE -->
<g id="node1" class="node">
<title>CE</title>
<polygon fill="none" stroke="#000000" points="122.4361,-168.7008 2.8241,-168.7008 2.8241,-144.0992 122.4361,-144.0992 122.4361,-168.7008"/>
<text text-anchor="middle" x="62.6301" y="-152.2" font-family="Times,serif" font-size="14.00" fill="#000000">(Causal) Estimand</text>
</g>
<!-- SE -->
<g id="node3" class="node">
<title>SE</title>
<polygon fill="none" stroke="#000000" points="125.3906,-96.7008 -.1304,-96.7008 -.1304,-72.0992 125.3906,-72.0992 125.3906,-96.7008"/>
<text text-anchor="middle" x="62.6301" y="-80.2" font-family="Times,serif" font-size="14.00" fill="#000000">Statistical estimand</text>
</g>
<!-- CE&#45;&gt;SE -->
<g id="edge1" class="edge">
<title>CE-&gt;SE</title>
<path fill="none" stroke="#000000" d="M62.6301,-143.8586C62.6301,-133.7407 62.6301,-119.2442 62.6301,-107.0982"/>
<polygon fill="#000000" stroke="#000000" points="66.1302,-106.7977 62.6301,-96.7977 59.1302,-106.7978 66.1302,-106.7977"/>
</g>
<!-- SM -->
<g id="node2" class="node">
<title>SM</title>
<polygon fill="none" stroke="#000000" points="260.7754,-168.7008 152.4848,-168.7008 152.4848,-144.0992 260.7754,-144.0992 260.7754,-168.7008"/>
<text text-anchor="middle" x="206.6301" y="-152.2" font-family="Times,serif" font-size="14.00" fill="#000000">Scientific model</text>
</g>
<!-- SM&#45;&gt;SE -->
<g id="edge2" class="edge">
<title>SM-&gt;SE</title>
<path fill="none" stroke="#000000" d="M181.8756,-144.0228C158.3848,-132.2774 122.8811,-114.5255 96.7196,-101.4448"/>
<polygon fill="#000000" stroke="#000000" points="98.053,-98.1984 87.5435,-96.8567 94.9225,-104.4594 98.053,-98.1984"/>
</g>
<!-- ES -->
<g id="node5" class="node">
<title>ES</title>
<polygon fill="none" stroke="#000000" points="95.1189,-24.7008 30.1413,-24.7008 30.1413,-.0992 95.1189,-.0992 95.1189,-24.7008"/>
<text text-anchor="middle" x="62.6301" y="-8.2" font-family="Times,serif" font-size="14.00" fill="#000000">Estimate</text>
</g>
<!-- SE&#45;&gt;ES -->
<g id="edge3" class="edge">
<title>SE-&gt;ES</title>
<path fill="none" stroke="#000000" d="M62.6301,-71.8586C62.6301,-61.7407 62.6301,-47.2442 62.6301,-35.0982"/>
<polygon fill="#000000" stroke="#000000" points="66.1302,-34.7977 62.6301,-24.7977 59.1302,-34.7978 66.1302,-34.7977"/>
</g>
<!-- D -->
<g id="node4" class="node">
<title>D</title>
<polygon fill="none" stroke="#000000" points="228.0587,-96.7008 185.2015,-96.7008 185.2015,-72.0992 228.0587,-72.0992 228.0587,-96.7008"/>
<text text-anchor="middle" x="206.6301" y="-80.2" font-family="Times,serif" font-size="14.00" fill="#000000">Data</text>
</g>
<!-- D&#45;&gt;ES -->
<g id="edge4" class="edge">
<title>D-&gt;ES</title>
<path fill="none" stroke="#000000" d="M185.3824,-73.7762C162.008,-62.089 124.1138,-43.1418 96.605,-29.3874"/>
<polygon fill="#000000" stroke="#000000" points="97.8583,-26.101 87.3488,-24.7593 94.7278,-32.362 97.8583,-26.101"/>
</g>
<!-- IT -->
<g id="node6" class="node">
<title>IT</title>
<text text-anchor="middle" x="105.8301" y="-130.6" font-family="Times,serif" font-size="14.00" fill="#000000">Identification</text>
</g>
<!-- ET -->
<g id="node7" class="node">
<title>ET</title>
<text text-anchor="middle" x="98.6301" y="-58.6" font-family="Times,serif" font-size="14.00" fill="#000000">Estimation</text>
</g>
</g>
</svg>