<?xml version="1.0" encoding="UTF-8" standalone="no"?>
<!DOCTYPE svg PUBLIC "-//W3C//DTD SVG 1.1//EN"
 "http://www.w3.org/Graphics/SVG/1.1/DTD/svg11.dtd">
<!-- Generated by graphviz version 2.43.0 (0)
 -->
<!-- Title: mrdag Pages: 1 -->
<svg width="490pt" height="339pt"
 viewBox="0.00 0.00 490.00 339.00" xmlns="http://www.w3.org/2000/svg" xmlns:xlink="http://www.w3.org/1999/xlink">
<g id="graph0" class="graph" transform="scale(1 1) rotate(0) translate(4 335)">
<title>mrdag</title>
<polygon fill="white" stroke="transparent" points="-4,4 -4,-335 486,-335 486,4 -4,4"/>
<!-- Xi -->
<g id="node1" class="node">
<title>Xi</title>
<polygon fill="none" stroke="black" points="50,-187 0,-187 0,-151 50,-151 50,-187"/>
<text text-anchor="start" x="18.5" y="-166.9" font-family="Times,serif" font-style="italic" font-size="12.00">X</text>
<text text-anchor="start" x="27.5" y="-166.9" font-family="Times,serif" baseline-shift="sub" font-size="12.00">i</text>
</g>
<!-- ti -->
<g id="node7" class="node">
<title>ti</title>
<ellipse fill="none" stroke="black" cx="133" cy="-97" rx="25" ry="25"/>
<text text-anchor="start" x="127" y="-94.9" font-family="Times,serif" font-size="12.00">θ</text>
<text text-anchor="start" x="135" y="-94.9" font-family="Times,serif" font-style="italic" baseline-shift="sub" font-size="12.00">i</text>
</g>
<!-- Xi&#45;&gt;ti -->
<g id="edge1" class="edge">
<title>Xi&#45;&gt;ti</title>
<path fill="none" stroke="black" d="M50.05,-152.3C66.07,-141.62 86.93,-127.71 103.72,-116.52"/>
<polygon fill="black" stroke="black" points="105.7,-119.41 112.08,-110.95 101.82,-113.58 105.7,-119.41"/>
</g>
<!-- Zk -->
<g id="node2" class="node">
<title>Zk</title>
<polygon fill="none" stroke="black" points="158,-331 108,-331 108,-295 158,-295 158,-331"/>
<text text-anchor="start" x="125" y="-310.9" font-family="Times,serif" font-style="italic" font-size="12.00">Z</text>
<text text-anchor="start" x="134" y="-310.9" font-family="Times,serif" baseline-shift="sub" font-size="12.00">k</text>
</g>
<!-- gk -->
<g id="node9" class="node">
<title>gk</title>
<ellipse fill="none" stroke="black" cx="241" cy="-241" rx="25" ry="25"/>
<text text-anchor="start" x="233.5" y="-238.9" font-family="Times,serif" font-size="12.00">γ</text>
<text text-anchor="start" x="241.5" y="-238.9" font-family="Times,serif" font-style="italic" baseline-shift="sub" font-size="12.00">k</text>
</g>
<!-- Zk&#45;&gt;gk -->
<g id="edge3" class="edge">
<title>Zk&#45;&gt;gk</title>
<path fill="none" stroke="black" d="M158.05,-296.3C174.07,-285.62 194.93,-271.71 211.72,-260.52"/>
<polygon fill="black" stroke="black" points="213.7,-263.41 220.08,-254.95 209.82,-257.58 213.7,-263.41"/>
</g>
<!-- Yr -->
<g id="node3" class="node">
<title>Yr</title>
<polygon fill="none" stroke="black" points="158,-187 108,-187 108,-151 158,-151 158,-187"/>
<text text-anchor="start" x="126" y="-166.9" font-family="Times,serif" font-style="italic" font-size="12.00">Y</text>
<text text-anchor="start" x="135" y="-166.9" font-family="Times,serif" baseline-shift="sub" font-size="12.00">r</text>
</g>
<!-- tir -->
<g id="node10" class="node">
<title>tir</title>
<ellipse fill="none" stroke="black" cx="241" cy="-97" rx="25" ry="25"/>
<text text-anchor="start" x="227.5" y="-94.9" font-family="Times,serif" font-size="12.00">θ</text>
<text text-anchor="start" x="235.5" y="-94.9" font-family="Times,serif" font-style="italic" baseline-shift="sub" font-size="12.00">ir(i)</text>
</g>
<!-- Yr&#45;&gt;tir -->
<g id="edge5" class="edge">
<title>Yr&#45;&gt;tir</title>
<path fill="none" stroke="black" d="M158.05,-152.3C174.07,-141.62 194.93,-127.71 211.72,-116.52"/>
<polygon fill="black" stroke="black" points="213.7,-119.41 220.08,-110.95 209.82,-113.58 213.7,-119.41"/>
</g>
<!-- Okijri -->
<g id="node4" class="node">
<title>Okijri</title>
<polygon fill="none" stroke="black" points="482,-187 432,-187 432,-151 482,-151 482,-187"/>
<text text-anchor="start" x="436.5" y="-166.9" font-family="Times,serif" font-style="italic" font-size="12.00">O</text>
<text text-anchor="start" x="446.5" y="-166.9" font-family="Times,serif" baseline-shift="sub" font-size="12.00">kijr(ij)</text>
</g>
<!-- ei -->
<g id="node5" class="node">
<title>ei</title>
<ellipse fill="none" stroke="black" cx="25" cy="-97" rx="25" ry="25"/>
<text text-anchor="start" x="19.5" y="-94.9" font-family="Times,serif" font-style="italic" font-size="12.00">e</text>
<text text-anchor="start" x="26.5" y="-94.9" font-family="Times,serif" baseline-shift="sub" font-size="12.00">i</text>
</g>
<!-- ei&#45;&gt;ti -->
<g id="edge2" class="edge">
<title>ei&#45;&gt;ti</title>
<path fill="none" stroke="black" d="M50.05,-97C64.12,-97 81.92,-97 97.42,-97"/>
<polygon fill="black" stroke="black" points="97.71,-100.5 107.71,-97 97.71,-93.5 97.71,-100.5"/>
</g>
<!-- ek -->
<g id="node6" class="node">
<title>ek</title>
<ellipse fill="none" stroke="black" cx="133" cy="-241" rx="25" ry="25"/>
<text text-anchor="start" x="126" y="-238.9" font-family="Times,serif" font-style="italic" font-size="12.00">e</text>
<text text-anchor="start" x="133" y="-238.9" font-family="Times,serif" baseline-shift="sub" font-size="12.00">k</text>
</g>
<!-- ek&#45;&gt;gk -->
<g id="edge4" class="edge">
<title>ek&#45;&gt;gk</title>
<path fill="none" stroke="black" d="M158.05,-241C172.12,-241 189.92,-241 205.42,-241"/>
<polygon fill="black" stroke="black" points="205.71,-244.5 215.71,-241 205.71,-237.5 205.71,-244.5"/>
</g>
<!-- ti&#45;&gt;tir -->
<g id="edge6" class="edge">
<title>ti&#45;&gt;tir</title>
<path fill="none" stroke="black" d="M158.05,-97C172.12,-97 189.92,-97 205.42,-97"/>
<polygon fill="black" stroke="black" points="205.71,-100.5 215.71,-97 205.71,-93.5 205.71,-100.5"/>
</g>
<!-- eri -->
<g id="node8" class="node">
<title>eri</title>
<ellipse fill="none" stroke="black" cx="133" cy="-25" rx="25" ry="25"/>
<text text-anchor="start" x="121.5" y="-22.9" font-family="Times,serif" font-style="italic" font-size="12.00">e</text>
<text text-anchor="start" x="128.5" y="-22.9" font-family="Times,serif" baseline-shift="sub" font-size="12.00">r(i)</text>
</g>
<!-- eri&#45;&gt;tir -->
<g id="edge7" class="edge">
<title>eri&#45;&gt;tir</title>
<path fill="none" stroke="black" d="M153.82,-38.88C170.15,-49.77 193.09,-65.06 211.34,-77.23"/>
<polygon fill="black" stroke="black" points="209.61,-80.28 219.87,-82.91 213.49,-74.46 209.61,-80.28"/>
</g>
<!-- dkijri -->
<g id="node11" class="node">
<title>dkijri</title>
<ellipse fill="none" stroke="black" cx="349" cy="-169" rx="25" ry="25"/>
<text text-anchor="start" x="329.5" y="-166.9" font-family="Times,serif" font-size="12.00">δ</text>
<text text-anchor="start" x="337.5" y="-166.9" font-family="Times,serif" font-style="italic" baseline-shift="sub" font-size="12.00">kijr(ij)</text>
</g>
<!-- gk&#45;&gt;dkijri -->
<g id="edge8" class="edge">
<title>gk&#45;&gt;dkijri</title>
<path fill="none" stroke="black" d="M261.82,-227.12C278.15,-216.23 301.09,-200.94 319.34,-188.77"/>
<polygon fill="black" stroke="black" points="321.49,-191.54 327.87,-183.09 317.61,-185.72 321.49,-191.54"/>
</g>
<!-- tir&#45;&gt;dkijri -->
<g id="edge9" class="edge">
<title>tir&#45;&gt;dkijri</title>
<path fill="none" stroke="black" d="M261.82,-110.88C278.15,-121.77 301.09,-137.06 319.34,-149.23"/>
<polygon fill="black" stroke="black" points="317.61,-152.28 327.87,-154.91 321.49,-146.46 317.61,-152.28"/>
</g>
<!-- dkijri&#45;&gt;Okijri -->
<g id="edge10" class="edge">
<title>dkijri&#45;&gt;Okijri</title>
<path fill="none" stroke="black" d="M374.05,-169C388.12,-169 405.92,-169 421.42,-169"/>
<polygon fill="black" stroke="black" points="421.71,-172.5 431.71,-169 421.71,-165.5 421.71,-172.5"/>
</g>
</g>
</svg>
